<?xml version="1.0" encoding="utf-8"?>
<!-- Generator: Adobe Illustrator 16.0.4, SVG Export Plug-In . SVG Version: 6.00 Build 0)  -->
<!DOCTYPE svg PUBLIC "-//W3C//DTD SVG 1.1//EN" "http://www.w3.org/Graphics/SVG/1.1/DTD/svg11.dtd">
<svg version="1.1" id="Ebene_1" xmlns="http://www.w3.org/2000/svg" xmlns:xlink="http://www.w3.org/1999/xlink" x="0px" y="0px"
	 width="200px" height="75.3px" viewBox="0 0 200 75.3" style="enable-background:new 0 0 200 75.3;" xml:space="preserve">
<style type="text/css">
<![CDATA[
	.st0{fill:#1A171B;}
	.st1{fill:#FFFFFF;}
]]>
</style>
<path class="st0" d="M192.15,20.45c-1.76,0-3.42,0.38-4.93,1.11c-0.6-0.27-1.27-0.43-1.99-0.46c-0.25-0.02-0.68-0.03-1.86-0.03
	c-0.81,0-1.89,0.01-3.19,0.03c-2.23,0-3.47,1.19-4,1.9c-0.04,0.05-0.07,0.1-0.11,0.16c-2.4-2.5-5.52-3.81-9.19-3.81
	c-2.46,0-4.59,0.54-6.28,1.58c-0.97,0.57-1.78,1.28-2.41,2.09c-0.49-0.63-1.13-1.15-1.9-1.5l0.28-2.54
	c0.07-0.61,0.12-1.05,0.15-1.32l0.03-0.25v-0.26c0-3.13-2.35-4.83-4.56-4.83c-0.94,0-1.88,0.28-2.86,0.85
	c-1.21,0.65-2.31,1.21-3.28,1.67c-0.9,0.42-1.72,0.75-2.4,0.97c-2.17,0.67-3.57,2.51-3.57,4.7c0,0.6,0.11,1.2,0.31,1.79
	c-2.61-2.3-5.7-2.84-8.04-2.84c-2.24,0-4.27,0.56-6.02,1.66c-0.5-0.16-1.01-0.27-1.54-0.31c-0.81-0.08-1.7-0.12-2.64-0.12
	c-0.92,0-1.92,0.04-2.97,0.12L119,20.8c-1.34,0.16-2.48,0.76-3.28,1.65c-2.04-1.43-4.51-2.16-7.36-2.16c-3.07,0-7.09,0.92-10.34,4.8
	c-1.14-2.42-3.66-4.32-8.18-4.32c-1.11,0-2.59,0.22-4.65,0.68c-0.71,0.16-1.34,0.27-1.88,0.34c-0.59,0.08-0.9,0.09-1.03,0.09
	c-0.48,0-0.96-0.13-1.43-0.37c-0.75-0.4-1.54-0.6-2.34-0.6c-1.74,0-3.24,0.91-4.17,2.48c-0.34-0.17-0.73-0.32-1.16-0.45
	c-0.41-0.12-0.83-0.21-1.25-0.27c-0.67-0.32-1.26-0.59-1.77-0.82c-0.52-0.24-0.9-0.42-1.16-0.54l-0.31-0.16l-0.33-0.1
	c-1.76-0.54-3.42-0.82-5-0.82c0,0,0,0-0.01,0c-3.81,0.07-7.14,1.39-9.8,3.85c-0.84-2.03-2.91-3.64-6.4-3.64
	c-1.76,0-3.42,0.38-4.93,1.11c-0.6-0.27-1.27-0.43-1.99-0.46c-0.25-0.02-0.68-0.03-1.86-0.03c-0.81,0-1.89,0.01-3.19,0.03
	c-0.33,0-0.63,0.03-0.92,0.08c-0.55-1.51-1.22-2.96-2.02-4.32C28.8,11.06,23.64,8,17.32,8c-2.45,0-4.67,0.77-6.6,2.29
	c-2.47,1.89-3.61,4.58-3.2,7.49c0.05,0.38,0.12,0.75,0.21,1.11C4.15,21.84,1,26.76,1,34.96c0,5.43,1.24,10.2,3.71,14.19
	c3.22,5.16,7.95,7.88,13.68,7.88c5.14,0,9.33-1.88,12.33-5.45c0.04,0.52,0.13,1.01,0.29,1.47c0.6,1.73,2.08,2.96,3.87,3.2l0.18,0.02
	l0.18,0.01c0.84,0.04,1.78,0.06,2.8,0.06c1,0,2.11-0.02,3.3-0.05l0.27-0.01l0.27-0.05c2.27-0.38,3.91-2.19,4.09-4.51L46,51.29
	l-0.21-1.63c-0.13-0.99-0.23-2.21-0.29-3.63c-0.07-1.46-0.1-3.21-0.1-5.21c0-1.73,0.02-2.91,0.04-3.72c0.61,0.35,1.34,0.6,2.19,0.61
	c-0.03,0.48-0.06,0.96-0.07,1.46c-0.08,6.55,2.22,10.8,4.88,13.5c-0.81,0.75-1.19,1.09-1.36,1.23l-0.24,0.18
	c-1.68,1.31-2.54,2.84-2.54,4.55c0,1.34,0.55,2.66,1.65,4c2.82,3.5,6.61,5.35,10.95,5.35c4.83,0,8.94-2.12,11.91-6.13
	c1.35-1.83,2.32-3.83,2.95-5.99c1.21,0.44,2.52,0.68,3.92,0.68c1.33,0,3.12-0.27,5.73-0.87c2.44-0.61,3.51-0.68,3.85-0.68
	c0.85,0,1.26,0.22,1.49,0.38l0.13,0.09c0.91,0.59,1.88,0.89,2.86,0.89c1.69,0,3.2-0.9,4.08-2.4c2.35,2.35,5.35,3.6,8.84,3.6
	c3.13,0,5.9-0.87,8.28-2.56c-0.22,3.8-0.33,4.92-0.38,5.24c-0.5,1.9-0.26,3.52,0.71,4.79c0.87,1.14,2.21,1.8,3.69,1.8
	c0.88,0,1.76-0.24,2.55-0.69c2.93-1.62,4.43-2.24,5.14-2.47c3.71-1.14,4.26-3.53,4.26-4.86c0-0.69-0.15-1.23-0.45-2.08
	c0.31,0.03,0.63,0.04,0.94,0.04c2.73,0,6.4-0.87,9.51-4.56c0.17,0.89,0.52,1.68,1.08,2.35c0.87,1.04,2.12,1.66,3.51,1.73l0.15,0
	c1.19,0.02,2.33,0.03,3.43,0.03c1.1,0,2.15-0.01,3.15-0.03l0.11,0l0.11-0.01c1.25-0.09,2.38-0.66,3.18-1.62
	c0.64-0.77,0.96-1.64,1.09-2.49c2.48,2.98,5.99,4.55,10.23,4.55c2.63,0,6.06-0.74,9.02-3.79c0.01,0.04,0.02,0.09,0.04,0.13
	c0.6,1.73,2.08,2.96,3.87,3.2l0.18,0.02l0.18,0.01c0.84,0.04,1.78,0.06,2.8,0.06c1,0,2.11-0.02,3.3-0.05l0.27-0.01l0.27-0.04
	c2.27-0.38,3.91-2.19,4.09-4.51l0.03-0.42l-0.21-1.64c-0.13-0.98-0.22-2.19-0.29-3.63c-0.07-1.46-0.1-3.22-0.1-5.21
	c0-1.73,0.02-2.91,0.04-3.72c0.62,0.36,1.38,0.62,2.26,0.62c0.61,0,3.67-0.2,4.59-4.05c0.19-0.64,0.81-2.64,0.91-2.98
	c0.56-1.82,0.82-3.2,0.82-4.34C199,23.41,196.88,20.45,192.15,20.45z M22.76,39.06c-0.83,1.68-1.64,1.82-2.46,1.82
	c-1.83,0-2.99-0.69-4.01-2.39c-1.12-1.86-1.58-3.96-1.39-6.5c0.04-0.73,0.1-1.4,0.17-1.98c0.86,0.41,1.81,0.62,2.83,0.62
	c0.12,0,0.23,0,0.4-0.01c1.7-0.1,3.26-0.88,4.39-2.2c0.14-0.16,0.26-0.33,0.38-0.5c0.54,1.52,0.8,3.25,0.8,5.22
	C23.88,35.53,23.5,37.53,22.76,39.06z M78.52,35.98c-1.07,1.03-1.93,1.95-2.61,2.8c-0.08,0.1-0.15,0.2-0.23,0.3
	c-0.02-0.2-0.03-0.4-0.05-0.58c-0.08-1.05-0.12-1.92-0.12-2.59c0-0.81,0.07-1.58,0.17-2.33c0.89,0.87,2.01,1.52,3.33,1.92
	C78.85,35.67,78.68,35.83,78.52,35.98z M129.13,38.59c0.1-2.3,0.37-3.74,0.62-4.61c0.65,1.33,1.08,2.98,1.29,4.92
	C130.43,38.71,129.79,38.61,129.13,38.59z M168.61,41.64c-0.15,0.21-0.22,0.3-0.66,0.3c-0.24,0-0.42,0-0.78-0.63l-0.05-0.08
	c-0.49-0.81-0.73-1.82-0.73-3.09c0-1.52,0.28-2.12,0.36-2.26c0.03-0.01,0.08-0.02,0.14-0.03l0.14-0.02
	c0.33-0.06,0.65-0.15,0.95-0.27c0.1,0.14,0.19,0.29,0.28,0.46c0.59,1.07,0.88,2.21,0.88,3.51
	C169.13,40.45,168.96,41.15,168.61,41.64z"/>
<path class="st1" d="M29.4,46.19c-2.27,4.5-5.94,6.76-11.02,6.76c-4.33,0-7.73-1.99-10.21-5.96c-2.06-3.33-3.09-7.34-3.09-12.03
	c0-7.2,2.73-12.13,8.19-14.79c-0.99-0.74-1.56-1.7-1.7-2.87c-0.21-1.53,0.34-2.78,1.65-3.78c1.21-0.96,2.57-1.44,4.1-1.44
	c4.9,0,8.71,2.29,11.44,6.86c2.23,3.8,3.35,8.35,3.35,13.67C32.11,38.15,31.21,42.68,29.4,46.19z M25.51,23.63
	c-1.92-3.16-4.61-4.74-8.09-4.74c-1.21,0-2.09,0.32-2.66,0.96c1.42,0.07,2.62,0.44,3.62,1.12c1.21,0.78,1.81,1.83,1.81,3.14
	c0,0.64-0.21,1.2-0.61,1.68c-0.41,0.48-0.91,0.74-1.52,0.77c-0.75,0.04-1.35-0.18-1.81-0.64v-1.17c0-0.35-0.14-0.67-0.43-0.96
	c-0.28-0.28-0.6-0.43-0.96-0.43c-1.49,0-2.55,0.96-3.19,2.87c-0.18,0.57-0.35,1.31-0.51,2.24c-0.16,0.92-0.28,2.02-0.35,3.3
	c-0.25,3.3,0.41,6.24,1.97,8.83c1.74,2.91,4.24,4.36,7.5,4.36c2.73,0,4.77-1.37,6.12-4.1c1.03-2.13,1.54-4.7,1.54-7.72
	C27.96,29.43,27.14,26.25,25.51,23.63z"/>
<path class="st1" d="M49.3,29.48c-0.11,0.35-0.24,0.79-0.4,1.3c-0.16,0.51-0.35,1.13-0.56,1.83c-0.14,0.67-0.35,1.01-0.64,1.01
	c-0.25,0-0.6-0.32-1.06-0.96l-1.33-1.81c-0.36-0.35-0.87-0.53-1.54-0.53c-0.96,0-1.7,1.44-2.23,4.31c-0.14,0.67-0.21,2.73-0.21,6.17
	c0,2.06,0.04,3.86,0.11,5.4c0.07,1.54,0.18,2.86,0.32,3.96l0.16,1.22c-0.04,0.46-0.27,0.73-0.69,0.8c-2.31,0.07-4.24,0.07-5.8,0
	c-0.53-0.07-0.73-0.64-0.59-1.7c0.25-2.02,0.43-3.93,0.56-5.72s0.19-3.48,0.19-5.08c0-6.35-0.39-10.75-1.17-13.2
	c-0.25-0.89,0.02-1.33,0.8-1.33c2.66-0.03,4.26-0.03,4.79,0c0.78,0.04,1.17,0.48,1.17,1.33c0,0.43,0.09,0.64,0.27,0.64
	c0.11,0,0.25-0.09,0.43-0.27c1.45-1.56,3.23-2.34,5.32-2.34c1.84,0,2.77,0.6,2.77,1.81C49.93,27.05,49.72,28.1,49.3,29.48z"/>
<path class="st1" d="M72.71,28.89c-0.85,2.09-1.28,4.44-1.28,7.02c0,0.78,0.04,1.75,0.13,2.9c0.09,1.16,0.22,2.53,0.4,4.13
	c0.18,1.6,0.31,2.97,0.4,4.12c0.09,1.15,0.13,2.12,0.13,2.9c0,3.62-0.99,6.77-2.98,9.47c-2.2,2.98-5.07,4.47-8.62,4.47
	c-3.12,0-5.71-1.28-7.77-3.83c-0.5-0.6-0.75-1.08-0.75-1.44c0-0.39,0.32-0.83,0.96-1.33c0.25-0.14,1.42-1.21,3.51-3.19
	c0.96-0.89,1.44-1.44,1.44-1.65c0-0.21-0.27-0.51-0.8-0.91c-3.97-2.59-5.92-6.7-5.85-12.34c0.07-3.9,1.05-7.25,2.93-10.06
	c2.16-3.16,5.13-4.77,8.89-4.84c1.1,0,2.34,0.21,3.73,0.64c0.28,0.14,0.72,0.35,1.3,0.61c0.59,0.27,1.29,0.59,2.1,0.98
	c0.25,0.07,0.5,0.12,0.74,0.16c0.25,0.04,0.5,0.09,0.75,0.16c0.71,0.21,1.06,0.46,1.06,0.74C73.13,27.72,72.99,28.15,72.71,28.89z
	 M65.71,43.77c-0.05-0.69-0.15-1.5-0.29-2.42c-0.14-0.92-0.24-1.74-0.29-2.45c-0.05-0.71-0.08-1.31-0.08-1.81
	c0-0.35,0.01-0.8,0.03-1.33c0.02-0.53,0.04-1.15,0.08-1.86c0.11-1.42,0.16-2.48,0.16-3.19c-1.06-0.99-1.65-1.52-1.76-1.6
	c-0.71-0.5-1.46-0.74-2.23-0.74c-1.38,0-2.45,0.66-3.19,1.97c-0.6,1.1-0.9,2.38-0.9,3.83c0,2.09,0.64,4.65,1.92,7.66
	c1.49,3.55,3.12,5.32,4.9,5.32c1.17,0,1.76-0.53,1.76-1.6C65.79,45.05,65.76,44.46,65.71,43.77z M66.96,49.59
	c-0.07-0.21-0.21-0.32-0.43-0.32c-0.14,0-0.46,0.19-0.96,0.58c-1.1,0.92-2.19,1.85-3.27,2.79c-1.08,0.94-2.17,1.91-3.27,2.9
	c-0.04,0.03-0.06,0.07-0.08,0.11c-0.02,0.04-0.05,0.07-0.08,0.11c-0.28,0.6,0.12,1.44,1.22,2.5c1.06,1.1,2.02,1.65,2.87,1.65
	c1.21,0,2.27-0.52,3.19-1.54c0.92-1.03,1.38-2.18,1.38-3.46C67.55,52.43,67.35,50.66,66.96,49.59z"/>
<path class="st1" d="M94.36,51.77c-0.25,0.57-0.67,0.66-1.28,0.27c-1.06-0.74-2.34-1.12-3.83-1.12c-1.1,0-2.71,0.27-4.84,0.8
	c-2.16,0.5-3.74,0.74-4.74,0.74c-1.1,0-2.07-0.2-2.93-0.59c-1.06-0.53-1.6-1.31-1.6-2.34c0-2.2,1.31-4.93,3.94-8.19
	c0.57-0.71,1.32-1.52,2.26-2.42c0.94-0.9,2.07-1.91,3.38-3.01c2.77-2.23,4.7-3.99,5.8-5.27c0.46-0.5,0.69-0.96,0.69-1.38
	c0-0.53-0.23-0.8-0.69-0.8c-0.14,0-0.23,0.02-0.27,0.05c-0.6,0.39-1.21,0.77-1.81,1.14c-0.6,0.37-1.21,0.75-1.81,1.14
	c-1.46,0.75-2.82,1.12-4.1,1.12c-3.44,0-5.16-1.51-5.16-4.52c0-0.57,0.11-1.12,0.32-1.65c0.28-0.71,0.69-0.92,1.22-0.64
	c1.1,0.57,2.22,0.85,3.35,0.85c0.43,0,0.96-0.04,1.6-0.13c0.64-0.09,1.37-0.22,2.18-0.4c1.74-0.39,3-0.59,3.78-0.59
	c3.23,0,4.84,1.24,4.84,3.72c0,1.31-0.66,2.73-1.97,4.26c-0.39,0.5-1.05,1.24-1.97,2.23c-0.92,0.99-2.13,2.29-3.62,3.88
	c-3.8,4.08-5.62,6.83-5.48,8.25c0,0.39,0.05,0.64,0.16,0.74c0.25,0.29,0.57,0.29,0.96,0l3.46-2.34c1.1-0.74,2.43-1.12,3.99-1.12
	c1.42,0,2.57,0.42,3.46,1.25c0.89,0.83,1.33,1.93,1.33,3.27C95,49.86,94.79,50.78,94.36,51.77z"/>
<path class="st1" d="M112.8,51.51c-1.72,1.31-3.77,1.97-6.15,1.97c-3.05,0-5.45-1.29-7.18-3.88c-1.6-2.27-2.39-5-2.39-8.19
	c0-4.33,0.8-8.04,2.39-11.12c2.02-3.94,4.98-5.91,8.89-5.91c2.16,0,3.95,0.55,5.35,1.65c1.4,1.1,2.1,2.71,2.1,4.84
	c0,1.84-1.44,4.12-4.31,6.81c-1.1,0.92-2.18,1.86-3.24,2.79s-2.15,1.87-3.25,2.79c-0.46,0.43-0.53,0.9-0.21,1.44
	c1.31,2.13,3,3.19,5.06,3.19c1.95,0,3.44-0.74,4.47-2.24c0.35-0.53,0.69-0.8,1.01-0.8c0.6,0,0.83,0.39,0.69,1.17
	C115.59,48.37,114.52,50.2,112.8,51.51z M108.78,29.16c-0.5-0.85-1.15-1.28-1.97-1.28c-1.53,0-2.64,1.05-3.35,3.14
	c-0.5,1.56-0.74,3.25-0.74,5.06c0,1.6,0.2,3.02,0.59,4.26c0.92-0.5,2.02-1.44,3.3-2.82c1.84-1.95,2.77-3.94,2.77-5.96
	C109.36,30.67,109.17,29.87,108.78,29.16z"/>
<path class="st1" d="M139.11,47.68c-1.95,3.33-4.52,5-7.71,5c-2.16,0-3.96-0.92-5.38-2.77c-0.18-0.18-0.3-0.27-0.37-0.27h-0.05
	c-0.18,0-0.27,0.27-0.27,0.8c0,2.87,0.39,5.32,1.17,7.34c0.21,0.6,0.32,0.94,0.32,1.01c0,0.35-0.46,0.67-1.38,0.96
	c-1.35,0.43-3.33,1.37-5.96,2.82c-0.18,0.11-0.36,0.16-0.53,0.16c-0.57,0-0.71-0.51-0.43-1.54c0.14-0.46,0.34-3.07,0.58-7.82
	c0.07-1.24,0.12-2.43,0.16-3.56c0.03-1.13,0.05-2.23,0.05-3.3c0-1.28-0.05-3.83-0.16-7.66l-0.21-7.66c0.07-0.78,0.12-1.86,0.16-3.24
	c-0.35-0.67-0.53-1.4-0.53-2.18c0-0.53,0.3-0.83,0.91-0.9c1.92-0.14,3.56-0.14,4.95,0c0.5,0.04,0.94,0.2,1.33,0.48
	c0.03,0.14,0.02,0.34-0.05,0.59c-0.07,0.25-0.11,0.39-0.11,0.43c-0.04,0.35,0.05,0.53,0.27,0.53s0.44-0.18,0.69-0.53
	c1.45-1.88,3.39-2.82,5.8-2.82c6.14,0,9.21,4.91,9.21,14.74C141.56,41.81,140.74,44.95,139.11,47.68z M133.25,31.87
	c-1.03-1.92-2.27-2.87-3.72-2.87c-3.02,0-4.53,3.88-4.53,11.65c0,0.25,0,0.57,0,0.96c0,0.36,0.02,0.78,0.05,1.28
	c0.03,0.5,0.06,0.93,0.08,1.3c0.02,0.37,0.03,0.68,0.03,0.93c0.96-1.63,2.24-2.45,3.83-2.45c0.74,0,1.42,0.3,2.02,0.91
	c0.6,0.6,0.92,1.28,0.96,2.02c0.04,0.57-0.02,0.93-0.16,1.09c-0.14,0.16-0.5,0.22-1.07,0.19c-0.28,0-0.52,0.15-0.72,0.45
	c-0.2,0.3-0.28,0.61-0.24,0.93c0.07,0.71,0.57,1.06,1.49,1.06c1.46,0,2.64-1.17,3.57-3.51c0.28-0.78,0.43-2.07,0.43-3.88
	C135.28,37.82,134.6,34.46,133.25,31.87z"/>
<path class="st1" d="M152.94,27.35h-0.9l-0.21,13.46c-0.04,0.82,0.03,2,0.19,3.56c0.16,1.56,0.38,3.5,0.67,5.8
	c0.14,1.31-0.04,1.99-0.53,2.02c-1.95,0.04-4.1,0.04-6.44,0c-0.67-0.04-0.94-0.6-0.8-1.7c0.28-2.45,0.5-5.26,0.67-8.43
	c0.16-3.17,0.24-6.73,0.24-10.67c0-1.1,0-1.97,0-2.61c0-0.67-0.02-1.15-0.05-1.44h-0.69c-1.35,0-2.02-0.34-2.02-1.01
	c0-0.85,0.69-1.28,2.07-1.28h0.43c-0.14-1.42-0.5-2.62-1.06-3.62c-0.21-0.35-0.32-0.67-0.32-0.96c0-0.39,0.23-0.66,0.69-0.8
	c0.89-0.28,1.86-0.67,2.93-1.17c1.06-0.5,2.25-1.1,3.56-1.81c0.36-0.21,0.64-0.32,0.85-0.32c0.32,0,0.48,0.25,0.48,0.75
	c-0.04,0.28-0.09,0.75-0.16,1.38c-0.07,0.64-0.16,1.44-0.27,2.4c-0.11,0.43-0.16,1.81-0.16,4.15h0.91c0.32,0,0.6,0.01,0.85,0.03
	c0.25,0.02,0.46,0.04,0.64,0.08c0.5,0.18,0.75,0.57,0.75,1.17C155.23,27.01,154.46,27.35,152.94,27.35z"/>
<path class="st1" d="M174.81,47.68c-1.88,3.3-4.51,4.95-7.87,4.95c-3.44,0-6.03-1.33-7.77-3.99c-1.49-2.27-2.23-5.23-2.23-8.89
	c0-4.36,1.75-7.48,5.27-9.36c-1.06-0.46-1.6-1.26-1.6-2.39c0-1.56,0.69-2.75,2.07-3.57c1.1-0.67,2.5-1.01,4.2-1.01
	c3.51,0,6.17,1.65,7.98,4.95c1.49,2.73,2.24,5.98,2.24,9.74C177.1,41.79,176.33,44.98,174.81,47.68z M171.83,34.06
	c-1.03-1.84-2.41-3.1-4.15-3.78c-1.17-0.5-2-0.6-2.5-0.32c1.13,0.28,1.7,0.73,1.7,1.33c0,0.28-0.19,0.46-0.59,0.53
	c-2.66,0.39-3.99,2.5-3.99,6.33c0,2.02,0.44,3.76,1.33,5.21c1.03,1.77,2.46,2.66,4.31,2.66c1.7,0,3.03-0.67,3.99-2.02
	c0.85-1.21,1.28-2.7,1.28-4.47C173.21,37.55,172.75,35.72,171.83,34.06z"/>
<path class="st1" d="M194.28,29.48c-0.11,0.35-0.24,0.79-0.4,1.3c-0.16,0.51-0.35,1.13-0.56,1.83c-0.14,0.67-0.36,1.01-0.64,1.01
	c-0.25,0-0.6-0.32-1.06-0.96l-1.33-1.81c-0.35-0.35-0.87-0.53-1.54-0.53c-0.96,0-1.7,1.44-2.24,4.31c-0.14,0.67-0.21,2.73-0.21,6.17
	c0,2.06,0.04,3.86,0.11,5.4c0.07,1.54,0.18,2.86,0.32,3.96l0.16,1.22c-0.04,0.46-0.26,0.73-0.69,0.8c-2.31,0.07-4.24,0.07-5.8,0
	c-0.53-0.07-0.73-0.64-0.58-1.7c0.25-2.02,0.43-3.93,0.56-5.72c0.12-1.79,0.19-3.48,0.19-5.08c0-6.35-0.39-10.75-1.17-13.2
	c-0.25-0.89,0.02-1.33,0.8-1.33c2.66-0.03,4.26-0.03,4.79,0c0.78,0.04,1.17,0.48,1.17,1.33c0,0.43,0.09,0.64,0.27,0.64
	c0.11,0,0.25-0.09,0.43-0.27c1.45-1.56,3.23-2.34,5.32-2.34c1.84,0,2.77,0.6,2.77,1.81C194.92,27.05,194.71,28.1,194.28,29.48z"/>
</svg>
