<?xml version="1.0" encoding="utf-8"?>
<!-- Generator: Adobe Illustrator 16.0.4, SVG Export Plug-In . SVG Version: 6.00 Build 0)  -->
<!DOCTYPE svg PUBLIC "-//W3C//DTD SVG 1.1//EN" "http://www.w3.org/Graphics/SVG/1.1/DTD/svg11.dtd">
<svg version="1.1" xmlns="http://www.w3.org/2000/svg" xmlns:xlink="http://www.w3.org/1999/xlink" x="0px" y="0px" width="198px"
	 height="84.1px" viewBox="0 0 198 84.1" style="enable-background:new 0 0 198 84.1;" xml:space="preserve">
<style type="text/css">
<![CDATA[
	.st0{fill:#1A171B;}
	.st1{fill:#F1C778;}
	.st2{fill:#F2C878;}
	.st3{display:inline;fill:#FFFFFF;}
	.st4{fill:#FFFFFF;}
	.st5{display:inline;}
	.st6{display:none;}
	.st7{fill:#A4411A;}
	.st8{fill:#A5411A;}
]]>
</style>
<g id="Ebene_1" class="st6">
	<g class="st5">
		<path class="st2" d="M50.7,0c1.9,0,3.7,0.4,5.4,1.3h0.8l0,0c3.5,0,7.5,1.7,9.8,5.3c1.3-0.3,2.6-0.5,4-0.5c3.8,0,7.1,1.1,9.9,3.3
			C84,12.2,86,16.4,86,21c0,1.3-0.2,2.5-0.5,3.8c0.1,0.2,0.2,0.5,0.2,0.7c1.5-0.3,2.8-0.4,4-0.4c3,0,5.6,0.6,7.9,1.7
			c2.8-1.4,5.9-2.1,9.2-2.1c2.3,0,4.5,0.3,6.5,1c0.8-0.2,1.6-0.4,2.4-0.5h0.1h0.1h0.1h0.1h0.1h0.1c1.2-0.1,2.3-0.1,3.3-0.1
			c0.9,0,1.8,0,2.7,0.1c2.1-0.8,4.4-1.2,6.7-1.2c1,0,1.9,0.1,2.9,0.2c1.4-1.5,3.2-2.5,5.2-3.2c0.2-0.1,0.6-0.2,1.3-0.5
			c0.7-0.3,1.6-0.8,2.5-1.3c2-1.2,4.2-1.8,6.4-1.8c4.7,0,8.7,2.7,10.7,6.7c0.9-0.1,1.9-0.2,2.9-0.2c3.2,0,6.2,0.7,8.9,2.1
			c1-0.3,2.1-0.4,3.2-0.4c1.3,0,2.3,0,3.1,0c1.2,0,1.8,0,2.1,0c0.3,0,0.6,0,1,0.1c1.6-0.5,3.3-0.7,5-0.7c9.1,0,14,6.8,14,13.2
			c0,1.8-0.3,3.8-1.1,6.3c-0.1,0.3-0.2,0.7-0.4,1.3c-0.1,0.3-0.2,0.8-0.4,1.3c-0.9,3.6-3.1,6.4-6,8c0,0.4,0,0.7,0,1
			c0,1.1,0.1,2,0.2,2.7l0.1,1.1l0.1,0.4v0.4v0.4v0.4v0.4v0.4c-0.4,5.7-4.6,10.3-10.2,11.2h-0.3h-0.3h-0.2h-0.2h-0.2h-0.2
			c-1.2,0-2.3,0.1-3.3,0.1c-1.1,0-2,0-2.9-0.1h-0.1h-0.2h-0.2h-0.2H172h-0.2c-1.2-0.2-2.3-0.5-3.4-1c-2.3,1-4.8,1.5-7.5,1.5
			c-3,0-5.8-0.6-8.3-1.7c-1.4,0.7-2.9,1.1-4.5,1.2H148h-0.1h-0.1h-0.1h-0.1h-0.1c-1,0-2,0-3.1,0c-1,0-2.1,0-3.3,0H141l0,0h-0.1h-0.1
			h-0.1l0,0h-0.1l0,0l0,0c-1.7-0.1-3.3-0.5-4.8-1.2c-0.5,0.2-1,0.4-1.5,0.6c-1.4,3.3-4.4,5.8-8.3,7c-0.1,0-1,0.4-3.3,1.7
			c-1.9,1.1-4,1.6-6.1,1.6c-3.8,0-7.3-1.7-9.6-4.7c-0.9-1.2-1.5-2.5-1.9-3.8c-2.8,0-5.5-0.6-7.9-1.7c-1.2,0.4-2.5,0.6-3.8,0.6
			c-1.7,0-3.4-0.4-5-1.1c-0.2,0.1-0.5,0.1-0.8,0.2h-0.1h-0.1l0,0l0,0c-2.4,0.6-4.3,0.9-5.9,1c-0.4,0.6-0.8,1.2-1.2,1.8
			C76,81,69.9,84.1,63,84.1c-6.3,0-11.9-2.7-16-7.7c-0.1-0.1-0.1-0.2-0.2-0.2c-0.7-0.9-1.4-1.9-1.8-2.9c-1.1,0-2.1,0-3,0
			c-1.1,0-2.1,0-2.9-0.1h-0.2h-0.2h-0.2h-0.2h-0.2h-0.2c-1.5-0.2-2.9-0.7-4.2-1.4c-3,1.4-6.4,2.1-10,2.1c-8,0-14.8-3.9-19.2-10.9
			C1.5,58.2,0,52.4,0,45.9c0-8.6,3-14.3,6-17.8c0.3-4.4,2.4-8.4,6-11.1l0,0c3.2-2.5,6.8-3.7,10.8-3.7c1.1,0,2.3,0.1,3.4,0.2
			c0.4-2.2,1.4-3.9,2.2-5.3c2.4-3.7,7.2-8.1,16.9-8.1c0.8,0,1.6,0.1,2.6,0.2C48.8,0.1,49.7,0,50.7,0"/>
	</g>
	<g class="st5">
		<path class="st8" d="M50.7,3.8c1.6,0,3.1,0.4,4.4,1.3h0.8h1c2.9,0,6.3,1.8,7.5,5.6c0.3,0.1,0.7,0.3,1,0.4c1.6-0.7,3.4-1.1,5.3-1.1
			c2.9,0,5.4,0.8,7.5,2.5c2.6,2,4,5.1,4,8.6c0,1.3-0.3,2.6-0.8,3.9c0.7,1.4,1.1,3,0.9,4.7c0.2,0.1,0.5,0.2,0.7,0.3
			c0.1,0,0.1,0,0.2,0c0.4-0.1,0.9-0.1,1.4-0.3c2.2-0.5,3.8-0.7,5.1-0.7c3.6,0,6.1,1,7.9,2.3c3.2-2.2,6.6-2.8,9.2-2.8
			c2.4,0,4.6,0.4,6.5,1.3c0.9-0.4,1.8-0.7,2.8-0.8h0.1h0.1h0.1h0.1c1.1-0.1,2.1-0.1,3-0.1c1,0,2,0,2.8,0.1h-0.1c0.2,0,0.3,0,0.5,0.1
			c1.9-0.9,3.9-1.3,6.1-1.3c1.5,0,3,0.2,4.4,0.6c1-1.7,2.7-3.1,4.8-3.8c0.5-0.2,1.1-0.4,1.8-0.7c0.8-0.4,1.8-0.9,2.8-1.4
			c1.5-0.8,3-1.3,4.5-1.3c3.7,0,7.6,2.7,8.1,7.4c1.7-0.6,3.5-0.9,5.5-0.9c3.2,0,6.1,0.8,8.5,2.4c1.1-0.5,2.3-0.8,3.6-0.8l0,0
			c1.3,0,2.3,0,3,0c1.1,0,1.6,0,1.9,0c0.5,0,1,0.1,1.5,0.2c1.5-0.5,3.1-0.8,4.7-0.8c6.7,0,10.2,4.7,10.2,9.3c0,1.5-0.3,3.1-0.9,5.1
			c-0.1,0.3-0.2,0.7-0.4,1.2c-0.1,0.4-0.3,0.9-0.4,1.4c-1,3.9-3.7,5.8-6.2,6.4c0,1.4,0,2.7,0.1,3.8c0.1,1.2,0.1,2.2,0.2,3l0.1,1.1
			l0.1,0.4v0.4v0.4v0.4c-0.3,3.9-3.2,7.1-7,7.7h-0.3h-0.2H179h-0.3c-1.2,0-2.2,0.1-3.2,0.1s-1.9,0-2.8-0.1h-0.1h-0.2h-0.2H172
			c-1.4-0.2-2.7-0.7-3.7-1.5c-2.3,1.3-4.9,2-7.6,2c-3.2,0-6.1-0.8-8.5-2.2c-1.3,1.1-2.9,1.7-4.6,1.8h-0.1h-0.1h-0.1h-0.1
			c-0.9,0-1.9,0-3,0c-1,0-2.1,0-3.2,0l0,0l0,0h-0.1h-0.1l0,0l0,0c-1.8-0.1-3.5-0.7-4.8-1.8c-1.6,1-3.2,1.6-4.7,1.9
			c-0.6,3.1-3,5.4-6.5,6.5c-0.2,0-1.2,0.4-4,2c-1.3,0.7-2.8,1.1-4.3,1.1c-2.6,0-5-1.2-6.5-3.2c-0.9-1.2-1.8-3-1.7-5.6
			c-1,0.2-2.1,0.3-3.2,0.3c-2.9,0-5.6-0.7-8-2.1c-1.2,0.7-2.5,1-4,1s-3-0.4-4.4-1.2c-0.4,0-1.1,0.2-2.3,0.5l0,0h-0.1
			c-2.7,0.6-4.6,0.9-6.1,0.9c-0.4,0-0.8,0-1.2,0c-0.6,1.2-1.2,2.3-2,3.4c-3.4,4.7-8.5,7.2-14.1,7.2c-5.1,0-9.7-2.2-13-6.3
			c0,0-0.1-0.1-0.1-0.2c-1.2-1.5-2-3.2-2.3-4.8c-0.5,0.2-1,0.3-1.5,0.4h-0.2h-0.3h-0.3h-0.3c-1.2,0-2.2,0.1-3.2,0.1s-1.9,0-2.8-0.1
			h-0.2h-0.2h-0.2h-0.2c-1.7-0.2-3.2-1-4.4-2.1c-2.9,1.8-6.4,2.8-10.2,2.8c-6.6,0-12.2-3.2-15.9-9.1c-2.7-4.3-4-9.4-4-15.1
			c0-8.1,3-13.2,6-16.3c-0.2-3.7,1.4-7.2,4.5-9.6c2.5-1.9,5.3-2.9,8.4-2.9c2.6,0,5.1,0.5,7.4,1.4c-0.3-0.9-0.4-1.8-0.4-2.7
			c0-2.3,0.9-4.1,1.8-5.5c2.2-2.9,6-6.3,13.9-6.3C46,4,46.8,4.1,48,4.2c0.1,0,0.1,0,0.2,0C49,4,49.8,3.8,50.7,3.8"/>
	</g>
	<path class="st5" d="M52.8,71.5L52.8,71.5L52.8,71.5L52.8,71.5z M154.8,32.9L154.8,32.9L154.8,32.9L154.8,32.9z M184,32.5
		c-1.6,0-3.2,0.3-4.6,1c-0.6-0.2-1.2-0.4-1.9-0.4c-0.2,0-0.7,0-1.7,0c-0.7,0-1.7,0-3,0l0,0c-2.1,0-3.2,1.1-3.7,1.8c0,0,0,0-0.1,0.1
		c-2.2-2.3-5.1-3.5-8.5-3.5c-2.3,0-4.2,0.5-5.8,1.5c-0.9,0.5-1.6,1.1-2.2,1.9c-0.4-0.5-1-1-1.7-1.3v-0.1l0.2-2.2
		c0.1-0.6,0.1-1,0.1-1.2v-0.2v-0.2c0-2.9-2.2-4.5-4.3-4.5c-0.9,0-1.8,0.3-2.7,0.8c-1.1,0.6-2.1,1.1-3,1.5c-0.8,0.4-1.6,0.7-2.2,0.9
		l0,0c-2,0.6-3.3,2.4-3.3,4.4c0,0.5,0.1,1,0.2,1.4c-2.4-2-5.2-2.5-7.3-2.5s-3.9,0.5-5.6,1.5c-0.4-0.1-0.9-0.2-1.4-0.3
		c-0.8-0.1-1.6-0.1-2.4-0.1c-0.9,0-1.8,0-2.7,0.1h-0.1h-0.1c-1.2,0.1-2.3,0.7-3,1.5c-1.9-1.3-4.2-2-6.8-2c-2.8,0-6.5,0.8-9.5,4.4
		c-1.1-2.2-3.4-3.9-7.6-3.9c-1,0-2.4,0.2-4.3,0.6c-0.7,0.1-1.2,0.2-1.7,0.3s-0.8,0.1-0.9,0.1c-0.4,0-0.9-0.1-1.3-0.3
		c-0.7-0.4-1.4-0.5-2.2-0.5c-1.2,0-2.2,0.4-3,1.2l0,0c1.2-1.2,1.9-2.7,2.2-4.5c0.3-1.8-0.4-3.1-0.9-3.6c-0.2-0.3-0.5-0.5-0.7-0.7
		c0.9-1.2,1.6-2.6,1.6-4.3c0-2.3-0.9-4.2-2.6-5.5c-1.4-1.1-3.2-1.7-5.2-1.7c-2.1,0-3.9,0.7-5.4,1.9c-0.8-0.8-2.2-1.7-4.2-1.9
		c0-0.4,0-0.7-0.1-1c-0.4-3-2.7-3.8-4-3.8h-1L55,9.4c-0.2,0.1-0.5,0.2-0.7,0.4C54.2,9.5,54,9.2,53.8,9l0,0l0,0
		c-0.8-0.8-1.9-1.3-3-1.3c-0.7,0-1.3,0.2-1.9,0.4h-0.1c-0.3,0-0.7-0.1-1.1-0.1c-1-0.1-1.7-0.2-2.3-0.2c-5,0-8.4,1.5-10.4,4.6
		c-0.7,1-1.3,2.2-1.3,3.5c0,1.3,0.5,2.4,1.3,3.2c-0.8,1.8-1.1,3.6-1.1,5.5c0,0.3,0,0.6,0,0.9c-2.9-3-6.7-4.5-11-4.5
		c-2.3,0-4.3,0.7-6.1,2.1c-2.3,1.8-3.4,4.2-3,7c0,0.3,0.1,0.7,0.2,1c-3.3,2.7-6.2,7.3-6.2,14.8c0,5,1.1,9.4,3.4,13.1
		c3,4.8,7.4,7.3,12.7,7.3c4.7,0,8.6-1.7,11.3-4.9c0.3,2.6,2,4,3.9,4.2h0.2h0.2c0.8,0,1.6,0.1,2.6,0.1c0.9,0,2,0,3-0.1h0.3h0.3
		c2.1-0.4,3.7-2,3.8-4.2V61l-0.1-0.4l-0.1-1.1c-0.1-0.9-0.2-2-0.3-3.3c-0.1-1.3-0.1-3-0.1-4.8c0-1.5,0-2.6,0-3.3
		c0.5,0.3,1.2,0.5,1.9,0.5c0,0.4,0,0.8-0.1,1.3c-0.1,6,2,9.9,4.5,12.4c-0.7,0.7-1,0.9-1.2,1.1l0,0l-0.2,0.2
		c-1.6,1.2-2.4,2.7-2.4,4.3c0,1.2,0.5,2.5,1.5,3.7c2.6,3.2,6.1,4.9,10.1,4.9c4.5,0,8.3-2,11-5.7c1.2-1.7,2.1-3.5,2.7-5.5
		c1.1,0.4,2.3,0.6,3.6,0.6c1.2,0,2.9-0.2,5.2-0.8l0,0l0,0c2.2-0.6,3.2-0.6,3.5-0.6c0.9,0,1.2,0.3,1.3,0.3h0.1h0.1
		c0.9,0.6,1.8,0.8,2.7,0.8c1.5,0,2.9-0.8,3.8-2.2c2.2,2.1,4.9,3.3,8.1,3.3c2.8,0,5.4-0.8,7.6-2.3c-0.2,3.4-0.3,4.4-0.3,4.7
		c-0.5,1.8-0.2,3.3,0.7,4.5c0.8,1.1,2.1,1.7,3.5,1.7c0.8,0,1.7-0.2,2.4-0.7c2.7-1.5,4.1-2.1,4.7-2.3c3.5-1.1,4-3.3,4-4.5
		c0-0.6-0.1-1.1-0.4-1.8c0.3,0,0.5,0,0.8,0c2.5,0,5.9-0.8,8.7-4.1c0.2,0.8,0.5,1.5,1,2c0.8,1,2,1.6,3.3,1.6h0.1h0.1
		c1.1,0,2.2,0,3.2,0s2,0,2.9,0h0.1h0.1c1.2-0.1,2.2-0.6,3-1.5c0.6-0.7,0.9-1.4,1-2.2c2.3,2.7,5.5,4.1,9.4,4.1c2.4,0,5.6-0.7,8.3-3.4
		c0.6,1.6,1.9,2.8,3.6,3h0.2h0.2c0.8,0,1.6,0.1,2.6,0.1c0.9,0,2,0,3-0.1h0.3h0.3c2.1-0.4,3.7-2,3.8-4.2v-0.4v-0.4l-0.1-1.1
		c-0.1-0.9-0.2-2-0.3-3.3c-0.1-1.3-0.1-3-0.1-4.8c0-1.5,0-2.6,0-3.3c0.6,0.3,1.2,0.5,2,0.5c0.6,0,3.4-0.2,4.3-3.8
		c0.2-0.6,0.3-1.1,0.5-1.5c0.2-0.5,0.3-0.9,0.4-1.2c0.5-1.7,0.8-3,0.8-4C190.3,35.2,188.4,32.5,184,32.5z M27.7,49.7
		c-0.7,1.5-1.5,1.6-2.2,1.6c-1.7,0-2.7-0.6-3.6-2.2c-1-1.7-1.4-3.6-1.3-5.9l0,0l0,0c0-0.6,0.1-1.2,0.1-1.7c0.8,0.4,1.6,0.5,2.6,0.5
		c0.1,0,0.2,0,0.4,0c1.6-0.1,3-0.8,4.1-2.1c0.1-0.1,0.2-0.2,0.3-0.4c0.5,1.4,0.7,2.9,0.7,4.7C28.8,46.4,28.4,48.3,27.7,49.7z
		 M79.2,46.8c-1,1-1.8,1.8-2.4,2.6l-0.1,0.1c0-0.1,0-0.2,0-0.4c-0.1-1-0.1-1.8-0.1-2.4c0-0.7,0-1.4,0.1-2c0.8,0.7,1.8,1.3,2.9,1.7
		C79.4,46.6,79.3,46.7,79.2,46.8z M125.9,49.2c0.1-1.9,0.3-3.2,0.5-4c0.5,1.2,0.9,2.6,1.1,4.3C127,49.3,126.5,49.2,125.9,49.2z
		 M162.2,52c-0.1,0.2-0.2,0.2-0.6,0.2c-0.2,0-0.3,0-0.7-0.5l0,0l0,0c-0.4-0.7-0.7-1.7-0.7-2.8c0-1.3,0.2-1.9,0.3-2h0.1h0.1h0.1
		c0.3-0.1,0.6-0.1,0.8-0.2c0.1,0.1,0.2,0.2,0.2,0.4c0.5,1,0.8,2,0.8,3.2C162.7,51,162.5,51.6,162.2,52z"/>
	<g class="st5">
		<path class="st4" d="M49.7,31.1c-1.3,1.1-2.9,1.6-4.8,1.7c-2.3,0.1-4.1-0.7-5.4-2.4c-1.3-1.6-1.9-3.5-1.9-5.8
			c0-1.8,0.5-3.5,1.4-5.2c0.9-1.6,2.1-2.9,3.7-4c0.3-0.2,0.3-0.4,0.1-0.5c-0.3-0.1-0.6-0.2-0.9-0.2c-1.1,0-2.1,0.5-3.1,1.5
			c-0.2,0.2-0.4,0.3-0.6,0.3c-0.4,0-0.6-0.2-0.6-0.7c0-0.3,0.2-0.7,0.7-1.4c1.2-1.9,3.6-2.8,7.1-2.8c0.4,0,1,0.1,1.9,0.2
			c0.4,0,0.8,0.1,1.1,0.1c0.3,0,0.6,0,0.8,0c0.4,0,0.8-0.1,1.3-0.4c0.3-0.1,0.5-0.1,0.7,0c0.3,0.3,0.5,0.8,0.5,1.4
			c0.1,0.9-0.3,1.6-1,2.1c-0.9,0.7-1.7,1-2.6,1c-0.6,0-1.3-0.1-2.1-0.3c-0.2-0.1-0.4-0.1-0.4-0.1c-0.3,0-0.6,0.1-0.9,0.4
			c-1,0.9-1.8,2.1-2.3,3.4c-0.5,1.3-0.8,2.6-0.8,4c0,1.5,0.4,2.8,1.1,3.9c0.8,1.3,2,1.9,3.4,1.9c1,0,1.8-0.3,2.5-0.9
			c0.7-0.6,1.1-1.4,1.1-2.3c0-0.6-0.2-1.1-0.5-1.5c-0.3-0.4-0.8-0.6-1.3-0.6c-0.6,0-1,0.3-1,0.8c0,0.2-0.1,0.4-0.3,0.5
			c-0.2,0.1-0.4,0.1-0.6,0c-0.8-0.6-1.3-1.2-1.3-2c0-0.7,0.3-1.3,0.9-1.7c0.6-0.4,1.2-0.7,1.9-0.7c1.4,0,2.4,0.7,3.3,2.1
			c0.7,1.1,1,2.5,1,3.9C51.8,28.4,51.1,29.9,49.7,31.1z"/>
		<path class="st4" d="M63.2,32.2h-2.7c-0.4,0-0.6-0.2-0.6-0.6c0-0.1,0-0.2,0-0.3s0-0.3,0.1-0.6c0-0.2,0.1-0.4,0.1-0.5
			c0-0.1,0-0.2,0-0.3l0.3-5.8c0-2.7-0.4-4.1-1.4-4.1c-1.1,0-1.8,1-2.1,3c-0.1,0.4-0.1,1.5-0.1,3.2c0,1,0,2,0.1,2.8
			c0,0.8,0.1,1.5,0.2,2.1c0.1,0.7,0,1-0.3,1.1c-1,0-2.1,0-3.4,0c-0.4,0-0.5-0.3-0.4-0.9c0.2-2,0.4-3.9,0.5-5.5
			c0.1-1.7,0.2-3.1,0.2-4.5c0-0.9,0-1.6,0-2.2c0-0.6,0-1,0-1.2c0-0.5-0.1-0.9-0.2-1.3c-0.1-0.4-0.2-0.7-0.4-1
			c-0.2-0.4-0.1-0.7,0.2-0.9c0.3-0.2,0.8-0.4,1.4-0.7c0.6-0.3,1.3-0.7,2.2-1.2c0.2-0.1,0.2,0.5,0.2,1.8c0,0.5,0,0.9,0,1.3
			c0,0.4,0,0.8,0,1.1L57,18.5c0,0.2,0,0.3,0.1,0.3s0.2-0.1,0.3-0.2c0.6-0.7,1.5-1.1,2.7-1.1c2.4,0,3.6,1.5,3.6,4.5
			c0,0.2,0,0.5,0,0.9c0,0.5,0,1.1,0,1.9l-0.1,2.8c0,0.2,0,0.5,0,0.8c0,0.3,0,0.7,0.1,1.2c0,0.4,0.1,0.8,0.1,1.1c0,0.3,0,0.6,0,0.8
			C63.7,32,63.5,32.2,63.2,32.2z"/>
		<path class="st4" d="M72.9,31.8c-0.9,0.7-2,1-3.2,1c-1.6,0-2.8-0.7-3.8-2c-0.8-1.2-1.3-2.6-1.3-4.3c0-2.3,0.4-4.2,1.3-5.8
			c1.1-2.1,2.6-3.1,4.6-3.1c1.1,0,2.1,0.3,2.8,0.9c0.7,0.6,1.1,1.4,1.1,2.5c0,1-0.8,2.2-2.3,3.6c-0.6,0.5-1.1,1-1.7,1.5
			s-1.1,1-1.7,1.5c-0.2,0.2-0.3,0.5-0.1,0.8c0.7,1.1,1.6,1.7,2.6,1.7s1.8-0.4,2.3-1.2c0.2-0.3,0.4-0.4,0.5-0.4
			c0.3,0,0.4,0.2,0.4,0.6C74.4,30.2,73.8,31.1,72.9,31.8z M70.8,20.1c-0.3-0.4-0.6-0.7-1-0.7c-0.8,0-1.4,0.5-1.8,1.6
			c-0.3,0.8-0.4,1.7-0.4,2.6c0,0.8,0.1,1.6,0.3,2.2c0.5-0.3,1.1-0.8,1.7-1.5c1-1,1.4-2.1,1.4-3.1C71.1,20.9,71,20.5,70.8,20.1z"/>
	</g>
	<path class="st3" d="M33.9,56.3c-2.1,4.2-5.5,6.2-10.2,6.2c-4,0-7.1-1.8-9.4-5.5c-1.9-3.1-2.8-6.8-2.8-11.1
		c0-6.6,2.5-11.2,7.6-13.6c-0.9-0.7-1.4-1.6-1.6-2.6c-0.2-1.4,0.3-2.6,1.5-3.5c1.1-0.9,2.4-1.3,3.8-1.3c4.5,0,8,2.1,10.5,6.3
		c2.1,3.5,3.1,7.7,3.1,12.6C36.4,48.9,35.6,53,33.9,56.3z M30.3,35.5c-1.8-2.9-4.3-4.4-7.5-4.4c-1.1,0-1.9,0.3-2.5,0.9
		c1.3,0.1,2.4,0.4,3.3,1c1.1,0.7,1.7,1.7,1.7,2.9c0,0.6-0.2,1.1-0.6,1.5c-0.4,0.4-0.8,0.7-1.4,0.7c-0.7,0-1.2-0.2-1.7-0.6v-1.1
		c0-0.3-0.1-0.6-0.4-0.9c-0.3-0.3-0.6-0.4-0.9-0.4c-1.4,0-2.4,0.9-2.9,2.6c-0.2,0.5-0.3,1.2-0.5,2.1c-0.1,0.8-0.3,1.9-0.3,3
		c-0.2,3,0.4,5.8,1.8,8.1c1.6,2.7,3.9,4,6.9,4c2.5,0,4.4-1.3,5.6-3.8c0.9-2,1.4-4.3,1.4-7.1C32.6,40.8,31.8,37.9,30.3,35.5z"/>
	<path class="st3" d="M52.3,40.9c-0.1,0.3-0.2,0.7-0.4,1.2c-0.1,0.5-0.3,1-0.5,1.7c-0.1,0.6-0.3,0.9-0.6,0.9c-0.2,0-0.6-0.3-1-0.9
		l-1.2-1.7c-0.3-0.3-0.8-0.5-1.4-0.5c-0.9,0-1.6,1.3-2.1,4c-0.1,0.6-0.2,2.5-0.2,5.7c0,1.9,0,3.6,0.1,5s0.2,2.6,0.3,3.7l0.1,1.1
		c0,0.4-0.2,0.7-0.6,0.7c-2.1,0.1-3.9,0.1-5.3,0c-0.5-0.1-0.7-0.6-0.5-1.6c0.2-1.9,0.4-3.6,0.5-5.3c0.1-1.7,0.2-3.2,0.2-4.7
		c0-5.9-0.4-9.9-1.1-12.2c-0.2-0.8,0-1.2,0.7-1.2c2.5,0,3.9,0,4.4,0c0.7,0,1.1,0.4,1.1,1.2c0,0.4,0.1,0.6,0.2,0.6s0.2-0.1,0.4-0.2
		c1.3-1.4,3-2.2,4.9-2.2c1.7,0,2.6,0.6,2.6,1.7C52.8,38.6,52.6,39.6,52.3,40.9z"/>
	<path class="st3" d="M73.8,40.3c-0.8,1.9-1.2,4.1-1.2,6.5c0,0.7,0,1.6,0.1,2.7c0.1,1.1,0.2,2.3,0.4,3.8c0.2,1.5,0.3,2.7,0.4,3.8
		c0.1,1.1,0.1,2,0.1,2.7c0,3.3-0.9,6.2-2.7,8.7c-2,2.7-4.7,4.1-7.9,4.1c-2.9,0-5.3-1.2-7.2-3.5c-0.5-0.6-0.7-1-0.7-1.3
		c0-0.4,0.3-0.8,0.9-1.2c0.2-0.1,1.3-1.1,3.2-2.9c0.9-0.8,1.3-1.3,1.3-1.5c0-0.2-0.2-0.5-0.7-0.8c-3.7-2.4-5.5-6.2-5.4-11.4
		c0.1-3.6,1-6.7,2.7-9.3c2-2.9,4.7-4.4,8.2-4.5c1,0,2.2,0.2,3.4,0.6c0.3,0.1,0.7,0.3,1.2,0.6c0.5,0.3,1.2,0.5,1.9,0.9
		c0.2,0.1,0.5,0.1,0.7,0.1s0.5,0.1,0.7,0.1c0.7,0.2,1,0.4,1,0.7C74.2,39.2,74.1,39.6,73.8,40.3z M67.4,54c0-0.6-0.1-1.4-0.3-2.2
		c-0.1-0.8-0.2-1.6-0.3-2.3c0-0.7-0.1-1.2-0.1-1.7c0-0.3,0-0.7,0-1.2s0-1.1,0.1-1.7C67,43.6,67,42.6,67,42c-1-0.9-1.5-1.4-1.6-1.5
		c-0.7-0.5-1.3-0.7-2.1-0.7c-1.3,0-2.3,0.6-2.9,1.8c-0.6,1-0.8,2.2-0.8,3.5c0,1.9,0.6,4.3,1.8,7.1c1.4,3.3,2.9,4.9,4.5,4.9
		c1.1,0,1.6-0.5,1.6-1.5C67.5,55.2,67.4,54.7,67.4,54z M68.5,59.4c-0.1-0.2-0.2-0.3-0.4-0.3c-0.1,0-0.4,0.2-0.9,0.5
		c-1,0.9-2,1.7-3,2.6c-1,0.9-2,1.8-3,2.7L61.1,65c0,0,0,0.1-0.1,0.1c-0.3,0.6,0.1,1.3,1.1,2.3s1.9,1.5,2.6,1.5
		c1.1,0,2.1-0.5,2.9-1.4c0.9-0.9,1.3-2,1.3-3.2C69.1,62,68.9,60.4,68.5,59.4z"/>
	<path class="st3" d="M93.8,61.4c-0.2,0.5-0.6,0.6-1.2,0.2c-1-0.7-2.2-1-3.5-1c-1,0-2.5,0.2-4.5,0.7S81.1,62,80.2,62
		c-1,0-1.9-0.2-2.7-0.5c-1-0.5-1.5-1.2-1.5-2.2c0-2,1.2-4.5,3.6-7.6c0.5-0.7,1.2-1.4,2.1-2.2c0.9-0.8,1.9-1.8,3.1-2.8
		c2.6-2.1,4.3-3.7,5.3-4.9c0.4-0.5,0.6-0.9,0.6-1.3c0-0.5-0.2-0.7-0.6-0.7c-0.1,0-0.2,0-0.2,0c-0.6,0.4-1.1,0.7-1.7,1.1
		c-0.6,0.3-1.1,0.7-1.7,1.1c-1.3,0.7-2.6,1-3.8,1c-3.2,0-4.8-1.4-4.8-4.2c0-0.5,0.1-1,0.3-1.5c0.3-0.7,0.6-0.9,1.1-0.6
		c1,0.5,2,0.8,3.1,0.8c0.4,0,0.9,0,1.5-0.1c0.6-0.1,1.3-0.2,2-0.4c1.6-0.4,2.8-0.5,3.5-0.5c3,0,4.5,1.1,4.5,3.4
		c0,1.2-0.6,2.5-1.8,3.9c-0.4,0.5-1,1.1-1.8,2.1c-0.8,0.9-2,2.1-3.3,3.6c-3.5,3.8-5.2,6.3-5.1,7.6c0,0.4,0,0.6,0.1,0.7
		c0.2,0.3,0.5,0.3,0.9,0l3.2-2.2c1-0.7,2.2-1,3.7-1c1.3,0,2.4,0.4,3.2,1.2s1.2,1.8,1.2,3C94.4,59.7,94.2,60.5,93.8,61.4z"/>
	<path class="st3" d="M110.8,61.2c-1.6,1.2-3.5,1.8-5.7,1.8c-2.8,0-5-1.2-6.6-3.6c-1.5-2.1-2.2-4.6-2.2-7.6c0-4,0.7-7.4,2.2-10.3
		c1.9-3.6,4.6-5.4,8.2-5.4c2,0,3.6,0.5,4.9,1.5c1.3,1,1.9,2.5,1.9,4.5c0,1.7-1.3,3.8-4,6.3c-1,0.9-2,1.7-3,2.6c-1,0.9-2,1.7-3,2.6
		c-0.4,0.4-0.5,0.8-0.2,1.3c1.2,2,2.8,2.9,4.7,2.9c1.8,0,3.2-0.7,4.1-2.1c0.3-0.5,0.6-0.7,0.9-0.7c0.6,0,0.8,0.4,0.6,1.1
		C113.4,58.3,112.4,60,110.8,61.2z M107.1,40.6c-0.5-0.8-1.1-1.2-1.8-1.2c-1.4,0-2.4,1-3.1,2.9c-0.5,1.4-0.7,3-0.7,4.7
		c0,1.5,0.2,2.8,0.5,3.9c0.8-0.5,1.9-1.3,3-2.6c1.7-1.8,2.5-3.6,2.5-5.5C107.6,42,107.5,41.2,107.1,40.6z"/>
	<path class="st3" d="M135.1,57.6c-1.8,3.1-4.2,4.6-7.1,4.6c-2,0-3.6-0.8-5-2.6c-0.2-0.2-0.3-0.2-0.3-0.2l0,0
		c-0.2,0-0.2,0.2-0.2,0.7c0,2.6,0.4,4.9,1.1,6.8c0.2,0.6,0.3,0.9,0.3,0.9c0,0.3-0.4,0.6-1.3,0.9c-1.2,0.4-3.1,1.3-5.5,2.6
		c-0.2,0.1-0.3,0.1-0.5,0.1c-0.5,0-0.7-0.5-0.4-1.4c0.1-0.4,0.3-2.8,0.5-7.2c0.1-1.1,0.1-2.2,0.1-3.3c0-1,0-2.1,0-3
		c0-1.2,0-3.5-0.1-7.1l-0.2-7.1c0.1-0.7,0.1-1.7,0.1-3c-0.3-0.6-0.5-1.3-0.5-2c0-0.5,0.3-0.8,0.8-0.8c1.8-0.1,3.3-0.1,4.6,0
		c0.5,0,0.9,0.2,1.2,0.4c0,0.1,0,0.3,0,0.5c-0.1,0.2-0.1,0.4-0.1,0.4c0,0.3,0,0.5,0.2,0.5s0.4-0.2,0.6-0.5c1.3-1.7,3.1-2.6,5.3-2.6
		c5.7,0,8.5,4.5,8.5,13.6C137.3,52.2,136.6,55.1,135.1,57.6z M129.7,43.1c-0.9-1.8-2.1-2.6-3.4-2.6c-2.8,0-4.2,3.6-4.2,10.7
		c0,0.2,0,0.5,0,0.9c0,0.3,0,0.7,0,1.2s0.1,0.9,0.1,1.2s0,0.6,0,0.9c0.9-1.5,2.1-2.3,3.5-2.3c0.7,0,1.3,0.3,1.9,0.8
		c0.6,0.6,0.8,1.2,0.9,1.9c0,0.5,0,0.9-0.1,1c-0.1,0.1-0.5,0.2-1,0.2c-0.3,0-0.5,0.1-0.7,0.4c-0.2,0.3-0.3,0.6-0.2,0.9
		c0.1,0.7,0.5,1,1.4,1c1.3,0,2.4-1.1,3.3-3.2c0.3-0.7,0.4-1.9,0.4-3.6C131.5,48.6,130.9,45.5,129.7,43.1z"/>
	<path class="st3" d="M147.8,38.9H147l-0.2,12.4c0,0.8,0,1.8,0.2,3.3c0.1,1.4,0.4,3.2,0.6,5.3c0.1,1.2,0,1.8-0.5,1.9
		c-1.8,0-3.8,0-5.9,0c-0.6,0-0.9-0.6-0.7-1.6c0.3-2.3,0.5-4.8,0.6-7.8c0.1-2.9,0.2-6.2,0.2-9.8c0-1,0-1.8,0-2.4c0-0.6,0-1.1,0-1.3
		h-0.6c-1.2,0-1.9-0.3-1.9-0.9c0-0.8,0.6-1.2,1.9-1.2h0.4c-0.1-1.3-0.5-2.4-1-3.3c-0.2-0.3-0.3-0.6-0.3-0.9c0-0.4,0.2-0.6,0.6-0.7
		c0.8-0.3,1.7-0.6,2.7-1.1s2.1-1,3.3-1.7c0.3-0.2,0.6-0.3,0.8-0.3c0.3,0,0.4,0.2,0.4,0.7c0,0.3-0.1,0.7-0.1,1.3
		c-0.1,0.6-0.1,1.3-0.2,2.2c-0.1,0.4-0.1,1.7-0.1,3.8h0.8c0.3,0,0.6,0,0.8,0s0.4,0,0.6,0.1c0.5,0.2,0.7,0.5,0.7,1.1
		C149.9,38.6,149.2,38.9,147.8,38.9z"/>
	<path class="st3" d="M168,57.6c-1.7,3-4.2,4.6-7.3,4.6c-3.2,0-5.6-1.2-7.2-3.7c-1.4-2.1-2.1-4.8-2.1-8.2c0-4,1.6-6.9,4.9-8.6
		c-1-0.4-1.5-1.2-1.5-2.2c0-1.4,0.6-2.5,1.9-3.3c1-0.6,2.3-0.9,3.9-0.9c3.2,0,5.7,1.5,7.4,4.6c1.4,2.5,2.1,5.5,2.1,9
		C170.1,52.2,169.4,55.2,168,57.6z M165.2,45.1c-0.9-1.7-2.2-2.9-3.8-3.5c-1.1-0.5-1.8-0.6-2.3-0.3c1,0.3,1.6,0.7,1.6,1.2
		c0,0.3-0.2,0.4-0.5,0.5c-2.5,0.4-3.7,2.3-3.7,5.8c0,1.9,0.4,3.5,1.2,4.8c0.9,1.6,2.3,2.5,4,2.5c1.6,0,2.8-0.6,3.7-1.9
		c0.8-1.1,1.2-2.5,1.2-4.1C166.5,48.3,166.1,46.6,165.2,45.1z"/>
	<path class="st3" d="M185.9,40.9c-0.1,0.3-0.2,0.7-0.4,1.2c-0.1,0.5-0.3,1-0.5,1.7c-0.1,0.6-0.3,0.9-0.6,0.9c-0.2,0-0.6-0.3-1-0.9
		l-1.2-1.7c-0.3-0.3-0.8-0.5-1.4-0.5c-0.9,0-1.6,1.3-2.1,4c-0.1,0.6-0.2,2.5-0.2,5.7c0,1.9,0,3.6,0.1,5c0.1,1.4,0.2,2.6,0.3,3.7
		l0.1,1.1c0,0.4-0.2,0.7-0.6,0.7c-2.1,0.1-3.9,0.1-5.3,0c-0.5-0.1-0.7-0.6-0.5-1.6c0.2-1.9,0.4-3.6,0.5-5.3c0.1-1.7,0.2-3.2,0.2-4.7
		c0-5.9-0.4-9.9-1.1-12.2c-0.2-0.8,0-1.2,0.7-1.2c2.5,0,3.9,0,4.4,0c0.7,0,1.1,0.4,1.1,1.2c0,0.4,0.1,0.6,0.2,0.6
		c0.1,0,0.2-0.1,0.4-0.2c1.3-1.4,3-2.2,4.9-2.2c1.7,0,2.5,0.6,2.5,1.7C186.5,38.6,186.3,39.6,185.9,40.9z"/>
</g>
<g id="Ebene_2">
	<g>
		<path class="st1" d="M63.24,76.24c-6.22,0-11.84-2.72-15.83-7.67c-0.79-0.97-1.44-1.98-1.94-3.03c-1.15,0.03-2.19,0.05-3.14,0.05
			c-1.04,0-2.01-0.02-2.9-0.06l-0.5-0.02l-0.5-0.07c-1.47-0.2-2.87-0.66-4.15-1.37c-2.98,1.43-6.31,2.15-9.93,2.15
			c-7.83,0-14.52-3.81-18.84-10.71C2.52,50.63,1,44.94,1,38.57c0-8.48,3.01-14.09,5.91-17.52c0.22-4.29,2.32-8.21,5.91-10.96
			c3-2.37,6.67-3.63,10.57-3.63c8.43,0,15.56,4.17,20.08,11.73c0.04,0.07,0.09,0.15,0.13,0.22c0.62,0.01,0.96,0.03,1.21,0.04
			c0.3,0.02,0.61,0.04,0.93,0.08c1.59-0.46,3.25-0.69,4.95-0.69c2.43,0,4.7,0.51,6.67,1.49c2.48-1.06,5.17-1.63,8-1.68l0.11,0
			c2.23,0,4.44,0.35,6.8,1.08L73.18,19c0,0,0.91,0.46,0.95,0.48c1.61-0.8,3.38-1.22,5.21-1.22c1.42,0,2.81,0.25,4.13,0.74
			c0.12-0.02,0.25-0.05,0.4-0.08c2.43-0.55,4.23-0.79,5.83-0.79c2.87,0,5.53,0.59,7.81,1.72c2.75-1.42,5.86-2.16,9.12-2.16
			c2.29,0,4.47,0.35,6.48,1.03c0.77-0.25,1.56-0.42,2.38-0.52l0.49-0.05c1.14-0.08,2.24-0.13,3.27-0.13c0.93,0,1.84,0.04,2.69,0.11
			c2.07-0.81,4.3-1.23,6.64-1.23c0.99,0,1.96,0.07,2.91,0.21c1.42-1.48,3.21-2.59,5.23-3.21c0.17-0.05,0.64-0.24,1.23-0.51
			c0.74-0.34,1.59-0.77,2.53-1.28c2-1.14,4.1-1.71,6.25-1.71c4.04,0,8.46,2.29,10.5,6.62c0.95-0.13,1.93-0.2,2.93-0.2
			c3.14,0,6.14,0.71,8.8,2.06c1.08-0.3,2.21-0.45,3.37-0.45c1.13-0.02,2.15-0.02,2.92-0.02c1.27,0,1.79,0.02,2.15,0.04
			c0.3,0.02,0.61,0.04,0.93,0.08c1.59-0.46,3.25-0.69,4.96-0.69c6.65,0,13.73,4.5,13.73,12.85c0,1.81-0.34,3.77-1.08,6.16
			l-0.77,2.52c-0.91,3.52-3.06,6.29-5.99,7.84c0.01,0.4,0.03,0.78,0.04,1.13c0.05,1.1,0.12,2.01,0.21,2.71l0.29,2.26l-0.09,1.16
			c-0.43,5.52-4.53,10.01-9.96,10.91l-0.75,0.12l-0.75,0.02c-1.19,0.04-2.27,0.05-3.26,0.05c-1.04,0-2.01-0.02-2.89-0.06l-0.5-0.02
			l-0.49-0.07c-1.17-0.16-2.31-0.49-3.38-0.98c-2.31,0.98-4.8,1.47-7.43,1.47c-2.98,0-5.74-0.56-8.25-1.66
			c-1.38,0.71-2.9,1.13-4.49,1.24l-0.29,0.02l-0.32,0.01c-0.92,0.02-1.93,0.03-2.98,0.03c-1.04,0-2.12-0.01-3.25-0.03l-0.41-0.01
			c-1.68-0.09-3.28-0.5-4.74-1.23c-0.55,0.25-1.11,0.48-1.68,0.68c-1.39,3.26-4.27,5.74-8.18,6.96c-0.13,0.05-1.06,0.41-3.35,1.67
			c-1.76,1.01-3.84,1.57-5.95,1.57c-3.7,0-7.09-1.67-9.31-4.59c-0.71-0.93-1.47-2.22-1.95-3.88c-2.86,0-5.54-0.58-8-1.73
			c-1.21,0.41-2.5,0.63-3.79,0.63c-1.7,0-3.35-0.35-4.91-1.06c-0.25,0.05-0.54,0.12-0.89,0.21c-2.59,0.6-4.47,0.9-6.09,0.99
			c-0.38,0.63-0.79,1.25-1.23,1.84C76.02,73.17,70.02,76.24,63.24,76.24z"/>
		<path class="st7" d="M63.24,72.51c-5.07,0-9.65-2.23-12.92-6.29c-1.28-1.56-2.05-3.23-2.27-4.95c-0.51,0.19-1.04,0.34-1.59,0.43
			l-0.49,0.08l-0.5,0.02c-1.14,0.04-2.19,0.05-3.14,0.05c-0.99,0-1.91-0.02-2.73-0.06l-0.33-0.01l-0.33-0.05
			c-1.68-0.22-3.21-0.96-4.4-2.07c-2.9,1.86-6.34,2.82-10.17,2.82c-6.5,0-12.06-3.18-15.67-8.96c-2.63-4.26-3.96-9.28-3.96-14.95
			c0-7.97,2.93-13.02,5.91-16.09c-0.22-3.68,1.36-7.08,4.44-9.43c2.4-1.89,5.2-2.87,8.3-2.87c7.06,0,13.05,3.52,16.87,9.91
			c0.38,0.65,0.74,1.33,1.08,2.04c0.49,0,0.94-0.01,1.32-0.01c1.14,0,1.61,0.02,1.91,0.04c0.49,0.02,0.97,0.09,1.43,0.19
			c1.48-0.52,3.05-0.79,4.68-0.79c2.54,0,4.77,0.71,6.49,2c2.46-1.39,5.26-2.14,8.26-2.2h0.08c1.81,0,3.67,0.3,5.66,0.91l0.6,0.19
			l0.57,0.29c0.19,0.1,0.51,0.24,0.92,0.43c0.33,0.15,0.71,0.33,1.13,0.52c1.4-1.1,3.12-1.72,4.95-1.72c1.27,0,2.5,0.29,3.67,0.87
			c0.06-0.01,0.14-0.02,0.22-0.03c0.4-0.06,0.88-0.14,1.44-0.27c2.16-0.49,3.73-0.71,5.04-0.71c3.09,0,5.77,0.82,7.8,2.34
			c3.19-2.23,6.57-2.78,9.13-2.78c2.37,0,4.54,0.44,6.5,1.31c0.87-0.42,1.81-0.7,2.8-0.82l0.32-0.03c1.05-0.08,2.06-0.12,2.99-0.12
			c0.98,0,1.92,0.04,2.78,0.13c0.16,0.01,0.33,0.03,0.49,0.05c1.85-0.87,3.88-1.3,6.05-1.3c1.56,0,3.04,0.21,4.44,0.6
			c1.03-1.76,2.71-3.13,4.8-3.78c0.43-0.14,1.05-0.39,1.71-0.7c0.81-0.38,1.74-0.85,2.77-1.4c1.44-0.83,2.93-1.25,4.43-1.25
			c3.68,0,7.49,2.74,7.87,7.37c1.65-0.62,3.52-0.94,5.56-0.94c3.14,0,6.01,0.83,8.46,2.43c1.12-0.54,2.39-0.83,3.71-0.83
			c1.16-0.02,2.16-0.02,2.92-0.02c1.14,0,1.61,0.02,1.91,0.04c0.49,0.02,0.97,0.09,1.43,0.19c1.48-0.52,3.05-0.79,4.69-0.79
			c6.56,0,10,4.59,10,9.12c0,1.43-0.29,3.04-0.92,5.07l-0.8,2.61c-0.97,3.89-3.65,5.74-6.17,6.27c0.01,1.47,0.04,2.77,0.09,3.88
			c0.05,1.2,0.14,2.21,0.24,3.01l0.25,1.88l-0.06,0.77c-0.29,3.8-3.11,6.9-6.85,7.52l-0.5,0.08l-0.49,0.01
			c-1.14,0.04-2.19,0.05-3.14,0.05c-0.99,0-1.91-0.02-2.73-0.06l-0.33-0.01l-0.33-0.05c-1.39-0.18-2.67-0.71-3.74-1.52
			c-2.26,1.3-4.82,1.97-7.58,1.97c-3.17,0-6.03-0.77-8.46-2.24c-1.27,1.07-2.84,1.72-4.54,1.83l-0.19,0.01l-0.21,0
			c-0.92,0.02-1.9,0.03-2.93,0.03c-1.02,0-2.08-0.01-3.19-0.03l-0.27-0.01c-1.79-0.09-3.45-0.73-4.79-1.83
			c-1.62,1.04-3.26,1.63-4.78,1.95c-0.58,3.02-2.88,5.38-6.39,6.46c-0.16,0.05-1.22,0.42-4,1.96c-1.23,0.71-2.68,1.1-4.14,1.1
			c-2.52,0-4.83-1.14-6.34-3.11c-0.9-1.18-1.81-3.05-1.62-5.65c-1.06,0.2-2.15,0.3-3.28,0.3c-2.88,0-5.55-0.73-7.87-2.14
			c-1.18,0.67-2.53,1.04-3.94,1.04c-1.51,0-2.97-0.41-4.33-1.21c-0.35,0.04-1.09,0.16-2.38,0.48c-2.75,0.63-4.62,0.91-6.14,0.91
			c-0.42,0-0.83-0.02-1.25-0.05c-0.57,1.19-1.25,2.32-2.03,3.39C73.74,69.98,68.8,72.51,63.24,72.51z"/>
		<path class="st0" d="M183.27,25.3c-1.61,0-3.13,0.34-4.51,1.02c-0.55-0.25-1.16-0.39-1.82-0.42c-0.23-0.02-0.62-0.03-1.7-0.03
			c-0.74,0-1.73,0.01-2.92,0.02c-2.04,0-3.17,1.09-3.66,1.73c-0.03,0.04-0.07,0.1-0.1,0.14c-2.2-2.29-5.05-3.48-8.41-3.48
			c-2.25,0-4.2,0.5-5.74,1.44c-0.89,0.52-1.62,1.17-2.21,1.91c-0.45-0.58-1.04-1.05-1.74-1.37l0.26-2.32
			c0.06-0.56,0.11-0.96,0.14-1.21l0.03-0.23v-0.23c0-2.87-2.15-4.41-4.17-4.41c-0.87,0-1.72,0.25-2.62,0.77
			c-1.1,0.6-2.11,1.11-3,1.52c-0.82,0.38-1.58,0.69-2.2,0.89c-1.98,0.61-3.26,2.3-3.26,4.3c0,0.55,0.1,1.1,0.28,1.64
			c-2.39-2.1-5.21-2.6-7.36-2.6c-2.05,0-3.91,0.52-5.51,1.51c-0.45-0.15-0.93-0.25-1.41-0.28c-0.74-0.07-1.55-0.11-2.41-0.11
			c-0.84,0-1.76,0.04-2.72,0.11l-0.16,0.02c-1.23,0.14-2.27,0.7-3,1.51c-1.87-1.31-4.13-1.98-6.74-1.98c-2.81,0-6.48,0.84-9.45,4.39
			c-1.04-2.21-3.34-3.95-7.48-3.95c-1.01,0-2.37,0.2-4.25,0.62c-0.65,0.14-1.23,0.25-1.72,0.32c-0.54,0.07-0.82,0.09-0.95,0.09
			c-0.44,0-0.88-0.12-1.31-0.34c-0.68-0.36-1.41-0.55-2.15-0.55c-1.59,0-2.96,0.83-3.81,2.27c-0.32-0.15-0.66-0.29-1.06-0.41
			c-0.38-0.11-0.76-0.19-1.14-0.24c-0.61-0.29-1.15-0.54-1.61-0.75c-0.47-0.22-0.83-0.38-1.06-0.5l-0.28-0.14l-0.3-0.09
			c-1.61-0.5-3.13-0.75-4.57-0.75c0,0,0,0-0.01,0c-3.49,0.07-6.53,1.27-8.96,3.52c-0.77-1.85-2.66-3.33-5.85-3.33
			c-1.61,0-3.13,0.34-4.51,1.02c-0.55-0.25-1.16-0.39-1.82-0.42c-0.23-0.02-0.63-0.03-1.7-0.03c-0.74,0-1.73,0.01-2.92,0.02
			c-0.3,0-0.58,0.03-0.84,0.07c-0.51-1.38-1.11-2.71-1.84-3.95c-3.16-5.29-7.89-8.09-13.67-8.09c-2.24,0-4.27,0.71-6.04,2.1
			c-2.26,1.73-3.3,4.19-2.92,6.85c0.04,0.35,0.11,0.69,0.19,1.02c-3.27,2.69-6.15,7.19-6.15,14.69c0,4.97,1.14,9.33,3.39,12.97
			c2.94,4.71,7.27,7.21,12.51,7.21c4.7,0,8.53-1.72,11.28-4.98c0.03,0.48,0.12,0.92,0.26,1.34c0.54,1.59,1.9,2.71,3.54,2.93
			l0.16,0.02l0.16,0.01c0.77,0.04,1.63,0.05,2.56,0.05c0.92,0,1.93-0.02,3.02-0.05l0.25-0.01l0.25-0.04
			c2.08-0.35,3.58-2.01,3.74-4.13l0.03-0.38l-0.19-1.49c-0.12-0.9-0.21-2.02-0.27-3.32c-0.06-1.34-0.09-2.94-0.09-4.76
			c0-1.58,0.02-2.66,0.04-3.4c0.55,0.32,1.22,0.55,2,0.56c-0.03,0.44-0.06,0.88-0.06,1.34c-0.08,5.99,2.03,9.87,4.46,12.35
			c-0.74,0.69-1.09,0.99-1.24,1.13l-0.22,0.17c-1.54,1.19-2.32,2.59-2.32,4.16c0,1.23,0.5,2.43,1.51,3.66
			c2.58,3.2,6.04,4.89,10.01,4.89c4.41,0,8.18-1.93,10.89-5.61c1.23-1.67,2.12-3.51,2.7-5.48c1.1,0.41,2.3,0.62,3.59,0.62
			c1.22,0,2.86-0.25,5.24-0.79c2.23-0.56,3.21-0.62,3.52-0.62c0.78,0,1.15,0.2,1.36,0.35l0.12,0.08c0.84,0.54,1.72,0.81,2.62,0.81
			c1.54,0,2.92-0.82,3.73-2.2c2.14,2.15,4.89,3.29,8.08,3.29c2.86,0,5.4-0.79,7.57-2.34c-0.2,3.48-0.31,4.5-0.35,4.79
			c-0.45,1.74-0.24,3.22,0.65,4.38c0.79,1.04,2.02,1.64,3.37,1.64c0.81,0,1.61-0.22,2.33-0.63c2.68-1.48,4.05-2.05,4.71-2.26
			c3.39-1.04,3.9-3.23,3.9-4.44c0-0.63-0.14-1.12-0.41-1.9c0.28,0.02,0.57,0.04,0.86,0.04c2.5,0,5.85-0.8,8.7-4.17
			c0.15,0.82,0.48,1.54,0.99,2.15c0.79,0.95,1.94,1.52,3.21,1.58l0.14,0c1.09,0.02,2.13,0.02,3.13,0.02c1,0,1.96-0.01,2.88-0.02
			l0.1,0l0.1-0.01c1.14-0.08,2.17-0.61,2.91-1.49c0.59-0.7,0.88-1.49,1-2.27c2.27,2.73,5.47,4.16,9.35,4.16
			c2.41,0,5.55-0.68,8.25-3.46c0.01,0.04,0.02,0.08,0.03,0.12c0.54,1.58,1.9,2.71,3.54,2.92l0.16,0.02l0.16,0.01
			c0.77,0.04,1.63,0.05,2.56,0.05c0.92,0,1.93-0.02,3.02-0.05l0.25-0.01l0.25-0.04c2.07-0.35,3.58-2,3.74-4.12l0.03-0.39l-0.2-1.5
			c-0.11-0.89-0.21-2.01-0.26-3.32c-0.06-1.34-0.09-2.95-0.09-4.77c0-1.58,0.02-2.66,0.04-3.4c0.57,0.33,1.26,0.57,2.07,0.57
			c0.56,0,3.36-0.18,4.2-3.71c0.18-0.58,0.74-2.42,0.83-2.72c0.51-1.66,0.75-2.92,0.75-3.97C189.54,28.01,187.6,25.3,183.27,25.3z
			 M28.36,42.32c-0.76,1.54-1.5,1.67-2.25,1.67c-1.68,0-2.74-0.63-3.66-2.19c-1.03-1.7-1.44-3.62-1.27-5.94
			c0.04-0.67,0.09-1.28,0.15-1.81c0.78,0.38,1.66,0.57,2.59,0.57c0.11,0,0.21,0,0.36-0.01c1.56-0.09,2.98-0.8,4.01-2.01
			c0.12-0.15,0.24-0.3,0.35-0.45c0.49,1.39,0.73,2.97,0.73,4.78C29.39,39.09,29.04,40.92,28.36,42.32z M79.36,39.51
			c-0.98,0.94-1.76,1.78-2.39,2.56c-0.07,0.09-0.14,0.18-0.21,0.27c-0.01-0.18-0.03-0.36-0.04-0.53c-0.07-0.96-0.11-1.75-0.11-2.37
			c0-0.74,0.06-1.45,0.15-2.13c0.82,0.79,1.84,1.39,3.05,1.76C79.65,39.22,79.5,39.37,79.36,39.51z M125.64,41.89
			c0.09-2.11,0.34-3.42,0.56-4.22c0.59,1.22,0.99,2.72,1.18,4.5C126.83,42,126.24,41.91,125.64,41.89z M161.74,44.68
			c-0.14,0.2-0.2,0.28-0.61,0.28c-0.22,0-0.38,0-0.71-0.57l-0.04-0.07c-0.45-0.74-0.67-1.66-0.67-2.82c0-1.39,0.25-1.94,0.33-2.07
			c0.03-0.01,0.07-0.02,0.13-0.03l0.13-0.02c0.3-0.05,0.59-0.14,0.87-0.24c0.09,0.13,0.17,0.27,0.26,0.42
			c0.54,0.97,0.8,2.02,0.8,3.21C162.22,43.59,162.06,44.23,161.74,44.68z"/>
		<path class="st4" d="M34.43,48.84c-2.08,4.12-5.43,6.18-10.07,6.18c-3.96,0-7.07-1.82-9.34-5.45c-1.88-3.05-2.82-6.71-2.82-11
			c0-6.58,2.5-11.09,7.49-13.53c-0.91-0.68-1.43-1.56-1.56-2.63c-0.2-1.39,0.31-2.55,1.51-3.45c1.1-0.88,2.35-1.31,3.75-1.31
			c4.48,0,7.96,2.09,10.46,6.28c2.04,3.47,3.06,7.64,3.06,12.51C36.92,41.49,36.09,45.63,34.43,48.84z M30.88,28.21
			c-1.75-2.89-4.22-4.33-7.4-4.33c-1.1,0-1.91,0.29-2.43,0.88c1.3,0.07,2.4,0.41,3.31,1.02c1.1,0.71,1.66,1.67,1.66,2.87
			c0,0.58-0.19,1.1-0.56,1.53c-0.37,0.44-0.83,0.67-1.39,0.71c-0.68,0.03-1.23-0.16-1.66-0.58v-1.07c0-0.32-0.13-0.62-0.39-0.88
			c-0.26-0.26-0.55-0.39-0.88-0.39c-1.36,0-2.34,0.88-2.92,2.63c-0.16,0.52-0.32,1.2-0.46,2.04c-0.15,0.84-0.25,1.85-0.32,3.02
			c-0.23,3.02,0.37,5.71,1.8,8.08c1.59,2.66,3.88,3.99,6.86,3.99c2.5,0,4.36-1.25,5.6-3.75c0.94-1.95,1.41-4.3,1.41-7.05
			C33.12,33.51,32.37,30.61,30.88,28.21z"/>
		<path class="st4" d="M52.63,33.56c-0.1,0.32-0.22,0.72-0.37,1.19c-0.15,0.47-0.31,1.03-0.51,1.68c-0.13,0.62-0.32,0.92-0.58,0.92
			c-0.23,0-0.55-0.29-0.97-0.88l-1.22-1.65c-0.33-0.32-0.8-0.49-1.41-0.49c-0.88,0-1.56,1.31-2.04,3.94
			c-0.13,0.62-0.19,2.5-0.19,5.64c0,1.88,0.03,3.53,0.1,4.94c0.06,1.41,0.16,2.62,0.29,3.63l0.15,1.12
			c-0.03,0.42-0.24,0.66-0.63,0.73c-2.11,0.06-3.88,0.06-5.3,0c-0.49-0.07-0.67-0.58-0.53-1.56c0.23-1.85,0.4-3.59,0.51-5.23
			c0.11-1.64,0.17-3.19,0.17-4.64c0-5.81-0.36-9.83-1.07-12.07c-0.23-0.81,0.02-1.22,0.73-1.22c2.43-0.03,3.89-0.03,4.38,0
			c0.71,0.03,1.07,0.44,1.07,1.22c0,0.39,0.08,0.58,0.24,0.58c0.1,0,0.23-0.08,0.39-0.24c1.33-1.43,2.95-2.14,4.87-2.14
			c1.69,0,2.53,0.55,2.53,1.65C53.21,31.34,53.02,32.29,52.63,33.56z"/>
		<path class="st4" d="M74.04,33.02c-0.78,1.92-1.17,4.06-1.17,6.42c0,0.72,0.04,1.6,0.12,2.65c0.08,1.05,0.2,2.31,0.37,3.77
			c0.16,1.46,0.28,2.72,0.36,3.77c0.08,1.06,0.12,1.94,0.12,2.65c0,3.31-0.91,6.19-2.73,8.66c-2.01,2.73-4.64,4.09-7.88,4.09
			c-2.85,0-5.22-1.17-7.1-3.5c-0.46-0.55-0.68-0.99-0.68-1.31c0-0.36,0.29-0.76,0.88-1.22c0.23-0.13,1.3-1.1,3.21-2.92
			c0.88-0.81,1.31-1.31,1.31-1.51c0-0.2-0.24-0.47-0.73-0.83c-3.63-2.37-5.42-6.13-5.35-11.29c0.06-3.57,0.96-6.63,2.68-9.2
			c1.98-2.89,4.69-4.36,8.13-4.43c1.01,0,2.14,0.2,3.41,0.58c0.26,0.13,0.66,0.32,1.19,0.56c0.54,0.24,1.18,0.54,1.92,0.9
			c0.23,0.06,0.45,0.11,0.68,0.15c0.23,0.03,0.45,0.08,0.68,0.15c0.65,0.19,0.97,0.42,0.97,0.68C74.43,31.95,74.3,32.34,74.04,33.02
			z M67.64,46.62c-0.05-0.63-0.14-1.37-0.27-2.21c-0.13-0.84-0.22-1.59-0.27-2.24c-0.05-0.65-0.07-1.2-0.07-1.65
			c0-0.32,0.01-0.73,0.02-1.22c0.02-0.49,0.04-1.05,0.07-1.7c0.1-1.3,0.15-2.27,0.15-2.92c-0.97-0.91-1.51-1.39-1.61-1.46
			c-0.65-0.46-1.33-0.68-2.04-0.68c-1.27,0-2.24,0.6-2.92,1.8c-0.55,1.01-0.83,2.17-0.83,3.5c0,1.91,0.58,4.25,1.75,7
			c1.36,3.24,2.86,4.87,4.48,4.87c1.07,0,1.61-0.49,1.61-1.46C67.72,47.8,67.69,47.26,67.64,46.62z M68.79,51.95
			c-0.07-0.2-0.19-0.29-0.39-0.29c-0.13,0-0.42,0.18-0.88,0.53c-1.01,0.85-2,1.7-2.99,2.56s-1.99,1.74-2.99,2.65
			c-0.03,0.03-0.06,0.06-0.07,0.1c-0.02,0.03-0.04,0.06-0.07,0.1c-0.26,0.55,0.11,1.31,1.12,2.29c0.97,1,1.85,1.51,2.63,1.51
			c1.1,0,2.08-0.47,2.92-1.41c0.84-0.94,1.27-1.99,1.27-3.16C69.32,54.55,69.14,52.92,68.79,51.95z"/>
		<path class="st4" d="M93.84,53.95c-0.23,0.52-0.62,0.6-1.17,0.24c-0.97-0.68-2.14-1.02-3.5-1.02c-1.01,0-2.48,0.24-4.43,0.73
			c-1.98,0.45-3.42,0.68-4.33,0.68c-1.01,0-1.9-0.18-2.68-0.54c-0.97-0.49-1.46-1.2-1.46-2.14c0-2.01,1.2-4.51,3.6-7.49
			c0.52-0.65,1.21-1.39,2.07-2.21c0.86-0.83,1.89-1.74,3.09-2.75c2.53-2.04,4.3-3.65,5.3-4.81c0.42-0.46,0.63-0.88,0.63-1.27
			c0-0.49-0.21-0.73-0.63-0.73c-0.13,0-0.21,0.02-0.24,0.05c-0.55,0.36-1.1,0.71-1.66,1.05c-0.55,0.34-1.1,0.69-1.65,1.05
			c-1.33,0.68-2.58,1.02-3.75,1.02c-3.15,0-4.72-1.38-4.72-4.13c0-0.52,0.1-1.02,0.29-1.51c0.26-0.65,0.63-0.84,1.12-0.58
			c1.01,0.52,2.03,0.78,3.06,0.78c0.39,0,0.88-0.04,1.46-0.12c0.58-0.08,1.25-0.2,2-0.37c1.59-0.36,2.74-0.54,3.45-0.54
			c2.95,0,4.43,1.14,4.43,3.41c0,1.2-0.6,2.5-1.8,3.89c-0.36,0.46-0.96,1.14-1.8,2.04c-0.84,0.91-1.94,2.09-3.31,3.55
			c-3.47,3.73-5.14,6.25-5.01,7.54c0,0.36,0.05,0.58,0.15,0.68c0.23,0.26,0.52,0.26,0.88,0l3.16-2.14c1-0.68,2.22-1.02,3.65-1.02
			c1.3,0,2.35,0.38,3.16,1.14c0.81,0.76,1.22,1.76,1.22,2.99C94.43,52.19,94.23,53.04,93.84,53.95z"/>
		<path class="st4" d="M110.7,53.7c-1.57,1.2-3.45,1.8-5.62,1.8c-2.79,0-4.98-1.18-6.57-3.55c-1.46-2.08-2.19-4.57-2.19-7.5
			c0-3.96,0.73-7.35,2.19-10.17c1.85-3.6,4.56-5.4,8.12-5.4c1.98,0,3.61,0.5,4.89,1.51c1.28,1,1.92,2.48,1.92,4.43
			c0,1.69-1.31,3.76-3.94,6.23c-1.01,0.84-1.99,1.7-2.97,2.56c-0.97,0.86-1.96,1.71-2.97,2.55c-0.42,0.39-0.49,0.83-0.2,1.31
			c1.2,1.95,2.74,2.92,4.62,2.92c1.79,0,3.15-0.68,4.09-2.04c0.32-0.49,0.63-0.73,0.92-0.73c0.55,0,0.76,0.36,0.63,1.07
			C113.26,50.83,112.28,52.5,110.7,53.7z M107.03,33.27c-0.46-0.78-1.05-1.17-1.8-1.17c-1.39,0-2.42,0.96-3.07,2.87
			c-0.45,1.43-0.68,2.97-0.68,4.62c0,1.46,0.18,2.76,0.54,3.89c0.84-0.45,1.85-1.32,3.02-2.58c1.69-1.78,2.53-3.6,2.53-5.45
			C107.56,34.65,107.38,33.92,107.03,33.27z"/>
		<path class="st4" d="M134.76,50.2c-1.79,3.05-4.14,4.58-7.05,4.58c-1.98,0-3.62-0.84-4.92-2.53c-0.16-0.16-0.28-0.24-0.34-0.24
			h-0.05c-0.16,0-0.24,0.24-0.24,0.73c0,2.63,0.36,4.87,1.07,6.71c0.2,0.55,0.29,0.86,0.29,0.92c0,0.33-0.42,0.62-1.27,0.88
			c-1.23,0.39-3.05,1.25-5.45,2.58c-0.16,0.1-0.32,0.14-0.49,0.14c-0.52,0-0.65-0.47-0.39-1.41c0.13-0.42,0.31-2.8,0.54-7.15
			c0.06-1.14,0.11-2.22,0.14-3.26c0.03-1.04,0.05-2.04,0.05-3.02c0-1.17-0.05-3.5-0.15-7l-0.19-7.01c0.06-0.71,0.11-1.7,0.15-2.97
			c-0.33-0.62-0.49-1.28-0.49-2c0-0.49,0.28-0.76,0.83-0.83c1.75-0.13,3.26-0.13,4.53,0c0.45,0.03,0.86,0.18,1.22,0.44
			c0.03,0.13,0.02,0.31-0.05,0.54s-0.1,0.36-0.1,0.39c-0.03,0.33,0.05,0.49,0.24,0.49c0.2,0,0.41-0.16,0.63-0.49
			c1.33-1.72,3.1-2.58,5.3-2.58c5.61,0,8.42,4.49,8.42,13.48C137,44.83,136.25,47.7,134.76,50.2z M129.41,35.75
			c-0.94-1.75-2.07-2.63-3.4-2.63c-2.76,0-4.14,3.55-4.14,10.66c0,0.23,0,0.52,0,0.88c0,0.33,0.02,0.71,0.05,1.17
			c0.03,0.46,0.06,0.85,0.07,1.19c0.02,0.34,0.03,0.62,0.03,0.85c0.88-1.49,2.04-2.24,3.5-2.24c0.68,0,1.3,0.28,1.85,0.83
			s0.84,1.17,0.88,1.85c0.03,0.52-0.02,0.85-0.14,1c-0.13,0.15-0.46,0.2-0.97,0.17c-0.26,0-0.48,0.14-0.66,0.41
			c-0.18,0.28-0.25,0.56-0.22,0.85c0.06,0.65,0.52,0.97,1.36,0.97c1.33,0,2.42-1.07,3.26-3.21c0.26-0.71,0.39-1.9,0.39-3.55
			C131.26,41.18,130.64,38.12,129.41,35.75z"/>
		<path class="st4" d="M147.41,31.61h-0.83l-0.2,12.31c-0.03,0.75,0.03,1.83,0.17,3.26c0.14,1.43,0.35,3.2,0.61,5.3
			c0.13,1.2-0.03,1.82-0.49,1.85c-1.79,0.03-3.75,0.03-5.89,0c-0.62-0.03-0.86-0.55-0.73-1.56c0.26-2.24,0.46-4.81,0.61-7.71
			c0.15-2.9,0.22-6.16,0.22-9.76c0-1.01,0-1.8,0-2.39c0-0.61-0.02-1.05-0.05-1.31h-0.63c-1.23,0-1.85-0.31-1.85-0.92
			c0-0.78,0.63-1.17,1.9-1.17h0.39c-0.13-1.3-0.45-2.4-0.97-3.31c-0.19-0.32-0.29-0.62-0.29-0.88c0-0.36,0.21-0.6,0.63-0.73
			c0.81-0.26,1.7-0.62,2.68-1.07c0.97-0.45,2.06-1,3.26-1.65c0.32-0.19,0.58-0.29,0.78-0.29c0.29,0,0.44,0.23,0.44,0.68
			c-0.03,0.26-0.08,0.68-0.14,1.26c-0.07,0.58-0.15,1.31-0.24,2.19c-0.1,0.39-0.15,1.65-0.15,3.79h0.83c0.29,0,0.55,0.01,0.78,0.03
			c0.23,0.02,0.42,0.04,0.58,0.07c0.45,0.16,0.68,0.52,0.68,1.07C149.51,31.3,148.81,31.61,147.41,31.61z"/>
		<path class="st4" d="M167.41,50.2c-1.72,3.02-4.12,4.53-7.2,4.53c-3.14,0-5.51-1.22-7.1-3.65c-1.36-2.08-2.04-4.78-2.04-8.13
			c0-3.99,1.61-6.84,4.82-8.56c-0.97-0.42-1.46-1.15-1.46-2.19c0-1.43,0.63-2.51,1.9-3.26c1-0.62,2.29-0.92,3.84-0.92
			c3.21,0,5.64,1.51,7.3,4.52c1.36,2.5,2.04,5.46,2.04,8.9C169.5,44.82,168.8,47.73,167.41,50.2z M164.69,37.74
			c-0.94-1.69-2.21-2.84-3.79-3.45c-1.07-0.46-1.83-0.55-2.29-0.29c1.04,0.26,1.55,0.67,1.55,1.22c0,0.26-0.18,0.42-0.54,0.49
			c-2.43,0.36-3.65,2.29-3.65,5.79c0,1.85,0.4,3.44,1.22,4.77c0.94,1.62,2.25,2.43,3.94,2.43c1.56,0,2.78-0.62,3.65-1.85
			c0.78-1.1,1.17-2.46,1.17-4.09C165.95,40.94,165.53,39.27,164.69,37.74z"/>
		<path class="st4" d="M185.22,33.56c-0.1,0.32-0.22,0.72-0.37,1.19c-0.15,0.47-0.32,1.03-0.51,1.68c-0.13,0.62-0.32,0.92-0.59,0.92
			c-0.23,0-0.55-0.29-0.97-0.88l-1.21-1.65c-0.33-0.32-0.79-0.49-1.41-0.49c-0.88,0-1.56,1.31-2.04,3.94
			c-0.13,0.62-0.19,2.5-0.19,5.64c0,1.88,0.03,3.53,0.1,4.94c0.06,1.41,0.16,2.62,0.29,3.63l0.14,1.12
			c-0.03,0.42-0.24,0.66-0.63,0.73c-2.11,0.06-3.88,0.06-5.3,0c-0.49-0.07-0.67-0.58-0.54-1.56c0.23-1.85,0.4-3.59,0.51-5.23
			c0.11-1.64,0.17-3.19,0.17-4.64c0-5.81-0.36-9.83-1.07-12.07c-0.23-0.81,0.02-1.22,0.73-1.22c2.43-0.03,3.89-0.03,4.38,0
			c0.71,0.03,1.07,0.44,1.07,1.22c0,0.39,0.08,0.58,0.24,0.58c0.1,0,0.23-0.08,0.39-0.24c1.33-1.43,2.95-2.14,4.87-2.14
			c1.69,0,2.53,0.55,2.53,1.65C185.8,31.34,185.61,32.29,185.22,33.56z"/>
	</g>
</g>
</svg>
